<svg width="18" height="16" viewBox="0 0 18 16" fill="none" xmlns="http://www.w3.org/2000/svg">
<path d="M10.3856 14.9283L9.53347 15.7417C9.17267 16.0861 8.58924 16.0861 8.23228 15.7417L0.770601 8.62285C0.4098 8.27845 0.4098 7.72155 0.770601 7.38081L8.23228 0.258301C8.59308 -0.0861003 9.1765 -0.0861003 9.53347 0.258301L10.3856 1.07167C10.7502 1.41974 10.7425 1.98763 10.3702 2.32837L5.74505 6.53446H16.7764C17.2869 6.53446 17.6976 6.9265 17.6976 7.41379V8.58622C17.6976 9.07351 17.2869 9.46554 16.7764 9.46554H5.74505L10.3702 13.6716C10.7464 14.0124 10.754 14.5803 10.3856 14.9283Z" fill="#353535"/>
</svg>
