<svg width="88" height="37" viewBox="0 0 88 37" fill="none" xmlns="http://www.w3.org/2000/svg">
<g filter="url(#filter0_d_165579_514)">
<rect x="4" y="2" width="80" height="29" rx="2" fill="#99E2D0"/>
</g>
<path d="M24.9067 12.0469V22H23.1909L18.727 14.8701V22H17.0112V12.0469H18.727L23.2045 19.1904V12.0469H24.9067ZM26.4721 18.3838V18.2266C26.4721 17.6934 26.5496 17.1989 26.7045 16.7432C26.8595 16.2829 27.0828 15.8841 27.3744 15.5469C27.6707 15.2051 28.0307 14.9408 28.4545 14.7539C28.8829 14.5625 29.366 14.4668 29.9037 14.4668C30.4461 14.4668 30.9291 14.5625 31.353 14.7539C31.7813 14.9408 32.1437 15.2051 32.4399 15.5469C32.7361 15.8841 32.9617 16.2829 33.1166 16.7432C33.2716 17.1989 33.3491 17.6934 33.3491 18.2266V18.3838C33.3491 18.917 33.2716 19.4115 33.1166 19.8672C32.9617 20.3229 32.7361 20.7217 32.4399 21.0635C32.1437 21.4007 31.7836 21.665 31.3598 21.8564C30.936 22.0433 30.4552 22.1367 29.9174 22.1367C29.3751 22.1367 28.8897 22.0433 28.4614 21.8564C28.0375 21.665 27.6775 21.4007 27.3813 21.0635C27.0851 20.7217 26.8595 20.3229 26.7045 19.8672C26.5496 19.4115 26.4721 18.917 26.4721 18.3838ZM28.1196 18.2266V18.3838C28.1196 18.7165 28.1537 19.0309 28.2221 19.3271C28.2905 19.6234 28.3976 19.8831 28.5434 20.1064C28.6892 20.3298 28.8761 20.5052 29.1039 20.6328C29.3318 20.7604 29.603 20.8242 29.9174 20.8242C30.2228 20.8242 30.4871 20.7604 30.7104 20.6328C30.9383 20.5052 31.1251 20.3298 31.2709 20.1064C31.4168 19.8831 31.5239 19.6234 31.5922 19.3271C31.6651 19.0309 31.7016 18.7165 31.7016 18.3838V18.2266C31.7016 17.8984 31.6651 17.5885 31.5922 17.2969C31.5239 17.0007 31.4145 16.7386 31.2641 16.5107C31.1183 16.2829 30.9314 16.1051 30.7036 15.9775C30.4802 15.8454 30.2136 15.7793 29.9037 15.7793C29.5938 15.7793 29.325 15.8454 29.0971 15.9775C28.8738 16.1051 28.6892 16.2829 28.5434 16.5107C28.3976 16.7386 28.2905 17.0007 28.2221 17.2969C28.1537 17.5885 28.1196 17.8984 28.1196 18.2266ZM39.1801 20.2568V14.6035H40.8344V22H39.2758L39.1801 20.2568ZM39.4125 18.7188L39.9662 18.7051C39.9662 19.2018 39.9116 19.6598 39.8022 20.0791C39.6928 20.4938 39.5242 20.8561 39.2963 21.166C39.0685 21.4714 38.7768 21.7106 38.4213 21.8838C38.0659 22.0524 37.6397 22.1367 37.143 22.1367C36.783 22.1367 36.4526 22.0843 36.1518 21.9795C35.851 21.8747 35.5912 21.7129 35.3725 21.4941C35.1583 21.2754 34.992 20.9906 34.8735 20.6396C34.755 20.2887 34.6957 19.8695 34.6957 19.3818V14.6035H36.3432V19.3955C36.3432 19.6644 36.3751 19.89 36.4389 20.0723C36.5027 20.25 36.5893 20.3936 36.6987 20.5029C36.808 20.6123 36.9356 20.6898 37.0815 20.7354C37.2273 20.7809 37.3823 20.8037 37.5463 20.8037C38.0157 20.8037 38.3849 20.7126 38.6537 20.5303C38.9272 20.3434 39.1209 20.0928 39.2348 19.7783C39.3533 19.4639 39.4125 19.1107 39.4125 18.7188ZM44.9291 20.6943L46.7407 14.6035H48.4496L45.8793 22H44.8129L44.9291 20.6943ZM43.5414 14.6035L45.3871 20.7217L45.476 22H44.4096L41.8256 14.6035H43.5414ZM52.6332 22.1367C52.0864 22.1367 51.5919 22.0479 51.1498 21.8701C50.7123 21.6878 50.3386 21.4349 50.0287 21.1113C49.7234 20.7878 49.4887 20.4072 49.3246 19.9697C49.1606 19.5322 49.0786 19.0605 49.0786 18.5547V18.2812C49.0786 17.7025 49.1629 17.1784 49.3315 16.709C49.5001 16.2396 49.7348 15.8385 50.0356 15.5059C50.3364 15.1686 50.6918 14.9111 51.102 14.7334C51.5121 14.5557 51.9565 14.4668 52.435 14.4668C52.9636 14.4668 53.4262 14.5557 53.8227 14.7334C54.2192 14.9111 54.5473 15.1618 54.8071 15.4854C55.0714 15.8044 55.2674 16.1849 55.395 16.627C55.5271 17.069 55.5932 17.5566 55.5932 18.0898V18.7939H49.8784V17.6113H53.9662V17.4814C53.9571 17.1852 53.8979 16.9072 53.7885 16.6475C53.6837 16.3877 53.5219 16.1781 53.3032 16.0186C53.0844 15.859 52.7927 15.7793 52.4282 15.7793C52.1547 15.7793 51.9109 15.8385 51.6967 15.957C51.4871 16.071 51.3116 16.2373 51.1703 16.4561C51.0291 16.6748 50.9197 16.9391 50.8422 17.249C50.7693 17.5544 50.7328 17.8984 50.7328 18.2812V18.5547C50.7328 18.8783 50.7761 19.179 50.8627 19.457C50.9539 19.7305 51.086 19.9697 51.2592 20.1748C51.4324 20.3799 51.642 20.5417 51.8881 20.6602C52.1342 20.7741 52.4145 20.8311 52.7289 20.8311C53.1254 20.8311 53.4786 20.7513 53.7885 20.5918C54.0984 20.4323 54.3673 20.2067 54.5952 19.915L55.4633 20.7559C55.3038 20.9883 55.0965 21.2116 54.8412 21.4258C54.586 21.6354 54.2739 21.8063 53.9047 21.9385C53.5401 22.0706 53.1163 22.1367 52.6332 22.1367ZM61.0483 20.5166V16.9893C61.0483 16.7249 61.0004 16.4971 60.9047 16.3057C60.809 16.1143 60.6632 15.9661 60.4672 15.8613C60.2758 15.7565 60.0343 15.7041 59.7426 15.7041C59.4737 15.7041 59.2413 15.7497 59.0453 15.8408C58.8494 15.932 58.6967 16.055 58.5873 16.21C58.478 16.3649 58.4233 16.5404 58.4233 16.7363H56.7827C56.7827 16.4447 56.8533 16.1621 56.9946 15.8887C57.1358 15.6152 57.3409 15.3714 57.6098 15.1572C57.8787 14.943 58.2 14.7744 58.5737 14.6514C58.9474 14.5283 59.3666 14.4668 59.8315 14.4668C60.3875 14.4668 60.8797 14.5602 61.308 14.7471C61.741 14.9339 62.0805 15.2165 62.3266 15.5947C62.5773 15.9684 62.7026 16.4378 62.7026 17.0029V20.291C62.7026 20.6283 62.7254 20.9313 62.7709 21.2002C62.8211 21.4645 62.8917 21.6947 62.9828 21.8906V22H61.2944C61.2169 21.8223 61.1554 21.5967 61.1098 21.3232C61.0688 21.0452 61.0483 20.7764 61.0483 20.5166ZM61.2875 17.502L61.3012 18.5205H60.1186C59.8133 18.5205 59.5444 18.5501 59.312 18.6094C59.0795 18.6641 58.8858 18.7461 58.7309 18.8555C58.5759 18.9648 58.4597 19.097 58.3823 19.252C58.3048 19.4069 58.2661 19.5824 58.2661 19.7783C58.2661 19.9743 58.3116 20.1543 58.4028 20.3184C58.4939 20.4779 58.6261 20.6032 58.7993 20.6943C58.977 20.7855 59.1912 20.8311 59.4418 20.8311C59.7791 20.8311 60.073 20.7627 60.3237 20.626C60.5789 20.4847 60.7794 20.3138 60.9252 20.1133C61.0711 19.9082 61.1485 19.7145 61.1577 19.5322L61.6909 20.2637C61.6362 20.4505 61.5427 20.651 61.4106 20.8652C61.2784 21.0794 61.1052 21.2845 60.8911 21.4805C60.6814 21.6719 60.4285 21.8291 60.1323 21.9521C59.8406 22.0752 59.5034 22.1367 59.1205 22.1367C58.6375 22.1367 58.2068 22.041 57.8286 21.8496C57.4503 21.6536 57.1541 21.3916 56.9399 21.0635C56.7257 20.7308 56.6186 20.3548 56.6186 19.9355C56.6186 19.5436 56.6915 19.1973 56.8373 18.8965C56.9877 18.5911 57.2065 18.3359 57.4936 18.1309C57.7853 17.9258 58.1407 17.7708 58.56 17.666C58.9793 17.5566 59.4578 17.502 59.9955 17.502H61.2875ZM68.8754 20.2568V14.6035H70.5297V22H68.9711L68.8754 20.2568ZM69.1078 18.7188L69.6616 18.7051C69.6616 19.2018 69.6069 19.6598 69.4975 20.0791C69.3881 20.4938 69.2195 20.8561 68.9916 21.166C68.7638 21.4714 68.4721 21.7106 68.1166 21.8838C67.7612 22.0524 67.3351 22.1367 66.8383 22.1367C66.4783 22.1367 66.1479 22.0843 65.8471 21.9795C65.5463 21.8747 65.2866 21.7129 65.0678 21.4941C64.8536 21.2754 64.6873 20.9906 64.5688 20.6396C64.4503 20.2887 64.3911 19.8695 64.3911 19.3818V14.6035H66.0385V19.3955C66.0385 19.6644 66.0704 19.89 66.1342 20.0723C66.198 20.25 66.2846 20.3936 66.394 20.5029C66.5034 20.6123 66.631 20.6898 66.7768 20.7354C66.9226 20.7809 67.0776 20.8037 67.2416 20.8037C67.711 20.8037 68.0802 20.7126 68.3491 20.5303C68.6225 20.3434 68.8162 20.0928 68.9301 19.7783C69.0486 19.4639 69.1078 19.1107 69.1078 18.7188Z" fill="#008766"/>
<defs>
<filter id="filter0_d_165579_514" x="0" y="0" width="88" height="37" filterUnits="userSpaceOnUse" color-interpolation-filters="sRGB">
<feFlood flood-opacity="0" result="BackgroundImageFix"/>
<feColorMatrix in="SourceAlpha" type="matrix" values="0 0 0 0 0 0 0 0 0 0 0 0 0 0 0 0 0 0 127 0" result="hardAlpha"/>
<feOffset dy="2"/>
<feGaussianBlur stdDeviation="2"/>
<feColorMatrix type="matrix" values="0 0 0 0 0 0 0 0 0 0 0 0 0 0 0 0 0 0 0.15 0"/>
<feBlend mode="normal" in2="BackgroundImageFix" result="effect1_dropShadow_165579_514"/>
<feBlend mode="normal" in="SourceGraphic" in2="effect1_dropShadow_165579_514" result="shape"/>
</filter>
</defs>
</svg>
