<svg width="28" height="36" viewBox="0 0 28 36" fill="none" xmlns="http://www.w3.org/2000/svg">
<path d="M14.0002 0C6.81114 0 0.962402 5.84873 0.962402 13.0378C0.962402 21.9596 12.63 35.0573 13.1267 35.6105C13.5933 36.1302 14.408 36.1293 14.8737 35.6105C15.3705 35.0573 27.0381 21.9596 27.0381 13.0378C27.0379 5.84873 21.1893 0 14.0002 0ZM14.0002 19.5974C10.3832 19.5974 7.44064 16.6548 7.44064 13.0378C7.44064 9.42075 10.3833 6.47817 14.0002 6.47817C17.6172 6.47817 20.5598 9.42082 20.5598 13.0378C20.5598 16.6549 17.6172 19.5974 14.0002 19.5974Z" fill="white"/>
</svg>
